<svg width="28" height="28" viewBox="0 0 28 28" fill="none" xmlns="http://www.w3.org/2000/svg">
<g clip-path="url(#clip0)">
<path d="M3.77004 3.769C1.72307 5.81579 0.551225 8.57771 0.501754 11.472C0.452283 14.3663 1.52905 17.1667 3.50488 19.2822C5.48071 21.3978 8.20108 22.6631 11.092 22.8112C13.983 22.9593 16.8184 21.9786 19 20.076L25.2 26.276C25.2694 26.3521 25.3535 26.4134 25.4473 26.4561C25.541 26.4988 25.6424 26.5221 25.7454 26.5245C25.8484 26.5269 25.9508 26.5084 26.0464 26.4701C26.142 26.4318 26.2289 26.3746 26.3018 26.3018C26.3746 26.229 26.432 26.1421 26.4704 26.0465C26.5087 25.9509 26.5273 25.8486 26.525 25.7456C26.5227 25.6426 26.4995 25.5412 26.4569 25.4474C26.4143 25.3536 26.3531 25.2695 26.277 25.2L20.077 19C21.9828 16.8188 22.9662 13.9822 22.8194 11.0895C22.6726 8.19672 21.4072 5.47427 19.2904 3.49717C17.1737 1.52007 14.3713 0.443153 11.4753 0.493876C8.57922 0.544598 5.81628 1.71899 3.77004 3.769ZM18.478 4.847C19.8243 6.19459 20.7408 7.91104 21.1117 9.77939C21.4826 11.6477 21.2912 13.5841 20.5618 15.3438C19.8325 17.1034 18.5978 18.6073 17.0138 19.6653C15.4299 20.7234 13.5679 21.2881 11.663 21.2881C9.75823 21.2881 7.89617 20.7234 6.31225 19.6653C4.72832 18.6073 3.49363 17.1034 2.76424 15.3438C2.03486 13.5841 1.84352 11.6477 2.21443 9.77939C2.58533 7.91104 3.50182 6.19459 4.84804 4.847C5.74268 3.95146 6.80504 3.24103 7.9744 2.75632C9.14377 2.27161 10.3972 2.02212 11.663 2.02212C12.9289 2.02212 14.1823 2.27161 15.3517 2.75632C16.521 3.24103 17.5834 3.95146 18.478 4.847Z" fill="#3E3E3E" stroke="#3E3E3E"/>
</g>
<defs>
<clipPath id="clip0">
<rect width="27.033" height="27.032" fill="white"/>
</clipPath>
</defs>
</svg>
